<svg width="32" height="32" viewBox="0 0 32 32" fill="none" xmlns="http://www.w3.org/2000/svg">
<rect width="32" height="32" rx="16" fill="#080808"/>
<path d="M11.852 21.168C11.096 21.168 10.3913 21.0467 9.738 20.804C9.094 20.552 8.534 20.1973 8.058 19.74C7.582 19.2827 7.20867 18.746 6.938 18.13C6.67667 17.514 6.546 16.8373 6.546 16.1C6.546 15.3627 6.67667 14.686 6.938 14.07C7.20867 13.454 7.582 12.9173 8.058 12.46C8.54333 12.0027 9.108 11.6527 9.752 11.41C10.396 11.158 11.1007 11.032 11.866 11.032C12.7153 11.032 13.4807 11.1813 14.162 11.48C14.8527 11.7693 15.4313 12.1987 15.898 12.768L14.442 14.112C14.106 13.7293 13.7327 13.4447 13.322 13.258C12.9113 13.062 12.4633 12.964 11.978 12.964C11.5207 12.964 11.1007 13.0387 10.718 13.188C10.3353 13.3373 10.004 13.552 9.724 13.832C9.444 14.112 9.22467 14.4433 9.066 14.826C8.91667 15.2087 8.842 15.6333 8.842 16.1C8.842 16.5667 8.91667 16.9913 9.066 17.374C9.22467 17.7567 9.444 18.088 9.724 18.368C10.004 18.648 10.3353 18.8627 10.718 19.012C11.1007 19.1613 11.5207 19.236 11.978 19.236C12.4633 19.236 12.9113 19.1427 13.322 18.956C13.7327 18.76 14.106 18.466 14.442 18.074L15.898 19.418C15.4313 19.9873 14.8527 20.4213 14.162 20.72C13.4807 21.0187 12.7107 21.168 11.852 21.168Z" fill="white"/>
<path d="M20.6496 21.168C19.8656 21.168 19.1142 21.0653 18.3956 20.86C17.6769 20.6453 17.0982 20.37 16.6596 20.034L17.4296 18.326C17.8496 18.6247 18.3442 18.872 18.9136 19.068C19.4922 19.2547 20.0756 19.348 20.6636 19.348C21.1116 19.348 21.4709 19.306 21.7416 19.222C22.0216 19.1287 22.2269 19.0027 22.3576 18.844C22.4882 18.6853 22.5536 18.5033 22.5536 18.298C22.5536 18.0367 22.4509 17.8313 22.2456 17.682C22.0402 17.5233 21.7696 17.3973 21.4336 17.304C21.0976 17.2013 20.7242 17.108 20.3136 17.024C19.9122 16.9307 19.5062 16.8187 19.0956 16.688C18.6942 16.5573 18.3256 16.3893 17.9896 16.184C17.6536 15.9787 17.3782 15.708 17.1636 15.372C16.9582 15.036 16.8556 14.6067 16.8556 14.084C16.8556 13.524 17.0049 13.0153 17.3036 12.558C17.6116 12.0913 18.0689 11.7227 18.6756 11.452C19.2916 11.172 20.0616 11.032 20.9856 11.032C21.6016 11.032 22.2082 11.1067 22.8056 11.256C23.4029 11.396 23.9302 11.6107 24.3876 11.9L23.6876 13.622C23.2302 13.3607 22.7729 13.1693 22.3156 13.048C21.8582 12.9173 21.4102 12.852 20.9716 12.852C20.5329 12.852 20.1736 12.9033 19.8936 13.006C19.6136 13.1087 19.4129 13.244 19.2916 13.412C19.1702 13.5707 19.1096 13.7573 19.1096 13.972C19.1096 14.224 19.2122 14.4293 19.4176 14.588C19.6229 14.7373 19.8936 14.8587 20.2296 14.952C20.5656 15.0453 20.9342 15.1387 21.3356 15.232C21.7462 15.3253 22.1522 15.4327 22.5536 15.554C22.9642 15.6753 23.3376 15.8387 23.6736 16.044C24.0096 16.2493 24.2802 16.52 24.4856 16.856C24.7002 17.192 24.8076 17.6167 24.8076 18.13C24.8076 18.6807 24.6536 19.1847 24.3456 19.642C24.0376 20.0993 23.5756 20.468 22.9596 20.748C22.3529 21.028 21.5829 21.168 20.6496 21.168Z" fill="#CF2C2C"/>
</svg>
